<?xml version="1.0" encoding="utf-8"?>
<!-- Generator: Adobe Illustrator 16.0.0, SVG Export Plug-In . SVG Version: 6.00 Build 0)  -->
<!DOCTYPE svg PUBLIC "-//W3C//DTD SVG 1.1//EN" "http://www.w3.org/Graphics/SVG/1.1/DTD/svg11.dtd">
<svg version="1.1" id="Layer_1" xmlns="http://www.w3.org/2000/svg" xmlns:xlink="http://www.w3.org/1999/xlink" x="0px" y="0px"
	 width="700px" height="560px" viewBox="130 0 700 560" enable-background="new 130 0 700 560" xml:space="preserve">
<g>
	<g>
		<path fill="#2C2F33" d="M441.894,523.036c0-6.284-5.027-11.312-11.312-11.312H272.785c-27.651,0-50.047-22.51-50.047-50.048
			V135.458h68.558v42.62c0,6.284,5.027,11.312,11.312,11.312c6.285,0,11.312-5.028,11.312-11.312v-42.62h136.315v42.62
			c0,6.284,5.027,11.312,11.312,11.312c6.284,0,11.312-5.028,11.312-11.312v-42.62h68.558v22.281
			c0,6.284,5.027,11.312,11.312,11.312c6.285,0,11.312-5.028,11.312-11.312v-33.593c0-6.284-5.027-11.312-11.312-11.312h-79.983
			c-1.942-48.333-41.82-87.182-90.724-87.182c-48.904,0-88.782,38.735-90.725,87.182h-79.983c-6.285,0-11.312,5.028-11.312,11.312
			v337.531c0,40.106,32.565,72.671,72.671,72.671h157.796C436.866,534.348,441.894,529.206,441.894,523.036z M382.02,48.276
			c36.335,0,66.158,28.68,68.1,64.558H313.919C315.862,76.956,345.685,48.276,382.02,48.276z"/>
		<path fill="#F91010" d="M537.988,253.377v12.912h-62.273c-6.284,0-11.312,5.027-11.312,11.312v198.474
			c0,32.107,26.052,58.159,58.159,58.159h179.278c32.107,0,58.159-26.052,58.159-58.159V277.601c0-6.285-5.027-11.312-11.312-11.312
			h-62.272v-12.912c0-40.906-33.25-74.271-74.271-74.271C571.238,179.221,537.988,212.471,537.988,253.377z M675.104,328.333
			c6.284,0,11.312-5.027,11.312-11.312v-28.109h50.961v187.162c0,19.653-15.997,35.536-35.535,35.536H522.562
			c-19.653,0-35.535-15.997-35.535-35.536V288.912h50.961v28.109c0,6.284,5.027,11.312,11.312,11.312
			c6.285,0,11.312-5.027,11.312-11.312v-28.109h103.179v28.109C663.791,323.306,668.818,328.333,675.104,328.333z M663.791,253.377
			v12.912H560.612v-12.912c0-28.451,23.195-51.646,51.646-51.646C640.596,201.845,663.791,224.926,663.791,253.377z"/>
	</g>
</g>
</svg>
