<?xml version="1.0" encoding="utf-8"?>
<!-- Generator: Adobe Illustrator 16.0.0, SVG Export Plug-In . SVG Version: 6.00 Build 0)  -->
<!DOCTYPE svg PUBLIC "-//W3C//DTD SVG 1.1//EN" "http://www.w3.org/Graphics/SVG/1.1/DTD/svg11.dtd">
<svg version="1.1" id="buybox_icon_credit__1_krY" xmlns="http://www.w3.org/2000/svg" xmlns:xlink="http://www.w3.org/1999/xlink"
	 x="0px" y="0px" width="230px" height="29px" viewBox="0 0 230 29" enable-background="new 0 0 230 29" xml:space="preserve">
<title>Crédito Elektra</title>
<path fill="#F91010" d="M162.7,20.4c0.1,1.699,0.5,2.699,1.6,3.1c-0.399,0.8-1.399,1.4-2.399,1.4h-0.2c-1.5,0-2.2-1-2.2-3.101V4.6
	l3.2-1.6V20.4L162.7,20.4z M171.6,10.3c0.101,0,0.2,0,0.4,0.2c1.8,0,3.5,0.7,4.7,1.8c1.2,1.2,1.899,2.8,1.899,4.5V17
	c0,0.6-0.1,1.3-0.3,1.8h-10.1c0,1,0.5,1.9,1.2,2.601C170.1,21.9,171,22.3,172,22.3h0.5c0.4,0,0.7,0,1-0.1c0.4-0.2,0.8-0.3,1.3-0.3
	c0.2,0,0.5,0,0.7,0.1c0.4,0.2,0.7,0.5,0.9,0.9C176.6,23.1,176.8,23.3,176.9,23.6c-1.4,0.9-3,1.4-4.7,1.4h-1c-1.8,0-3.5-0.7-4.7-1.9
	c-1.2-1.199-1.9-2.899-1.9-4.8V17.9v-0.4c0-2,0.801-3.8,2.101-5.1C167.9,11.1,169.6,10.3,171.6,10.3
	C171.5,10.3,171.5,10.3,171.6,10.3L171.6,10.3z M168.1,16.1h6.9c0-1.7-1.4-3.1-3.1-3.1H171.6C169.7,13,168.6,14,168.1,16.1
	L168.1,16.1z M150.8,10.3c0.101,0,0.2,0,0.601,0.2c1.8,0,3.399,0.7,4.6,1.8c1.2,1.2,1.9,2.7,1.9,4.5V17
	c-0.101,0.6-0.2,1.3-0.301,1.8h-10.1c0.1,1,0.5,1.9,1.2,2.601c0.7,0.5,1.6,0.899,2.6,0.899h0.5c0.4,0,0.7,0,1-0.1
	c0.4-0.2,0.8-0.3,1.3-0.3c0.2,0,0.5,0,0.7,0.1c0.4,0.2,0.7,0.5,0.9,0.9c0.2,0.199,0.399,0.399,0.5,0.699c-1.4,0.9-3,1.4-4.7,1.4h-1
	c-1.9,0-3.6-0.7-4.8-1.9c-1.2-1.199-1.9-2.899-1.9-4.8V17.9v-0.4c0-2,0.8-3.8,2.101-5.1C147.1,11.1,148.8,10.3,150.8,10.3
	C150.7,10.3,150.7,10.3,150.8,10.3z M147.3,16.1h6.9c0-1.7-1.4-3.1-3.101-3.1h-0.3C148.9,13,147.8,14,147.3,16.1L147.3,16.1z
	 M191.7,10.3l-5,5.601l5.899,9H189.4c-0.5,0-0.9-0.301-1.101-0.601c-0.2-0.2-4-6-4-6l-1.6,1.7v4.9h-3.2V4.5l3.2-1.5v13l5-5.7H191.7
	L191.7,10.3z M199,21.5c0.3,0.4,0.9,0.7,1.3,0.7h0.2c0.8,0,1.6-0.2,2.2-0.601v3h0.1c-1,0.301-2,0.4-3,0.4h-0.6
	c-1.101,0-2.101-0.5-2.9-1.2c-0.7-0.899-1.1-1.899-1.1-3.1V13h-4l2.399-2.7h1.7V7.4l3.2-1.2v4.1h3.9v2.6h-3.9v6.8
	C198.5,20.3,198.7,21,199,21.5L199,21.5z M213.2,11.5c-0.2,0.4-0.3,0.9-0.2,1.5c0,0.3,0,0.5,0.1,0.8c-0.6-0.4-1.399-0.7-2.3-0.7
	c-0.899,0.1-1.7,0.5-2.3,1.1c-0.6,0.6-0.9,1.5-0.9,2.399V24.9H204.4V10.3h3.199v1.6c0.801-1,2.101-1.6,3.5-1.6h0.2
	c0.9,0,1.8,0.2,2.5,0.5C213.5,11,213.3,11.2,213.2,11.5z M224.8,20.3c0,2,0.4,3.101,1.3,3.601C225.9,24.3,225.6,24.6,225.2,24.8
	c-0.3,0.101-0.601,0.2-1,0.2H224c-0.5,0-1-0.2-1.3-0.5c-0.4-0.3-0.601-0.6-0.8-1.1c-0.4,0.6-0.9,1-1.601,1.199
	c-0.7,0.301-1.5,0.5-2.3,0.5h-0.4c-1.3,0-2.399-0.5-3.3-1.199c-0.8-0.801-1.3-1.801-1.3-3V20.6V20.4c0-1.4,0.7-2.801,1.8-3.601
	c1.3-0.899,3-1.399,4.7-1.399h0.6c0.5,0,1,0.1,1.4,0.199c0-1.7-1.1-2.5-3.2-2.5h-0.2c-0.8,0-1.6,0.2-2.3,0.4l-0.5,0.2h-0.1
	c0,0-1-2.4,1.399-3.1h-0.1c0.8-0.2,1.6-0.3,2.4-0.3h0.699c1.5,0,2.801,0.6,3.7,1.5c1,0.9,1.5,2.8,1.5,5.5V20.3L224.8,20.3z
	 M221.6,19.4v-1.2c-0.399-0.101-0.8-0.2-1.3-0.2c-2.6,0-3.899,0.8-3.899,2.5c0,1.3,0.699,1.9,2.199,1.9h0.4c1.4,0,2.6-1.2,2.6-2.601
	V19.4z M134.7,12.6L138.1,12v-0.1c0.101,0.7,0.2,1.5,0.2,2.3c0,1-0.1,1.899-0.3,2.7c-1.1,1.399-2.8,2.199-4.7,2.3
	c-2.8,0-5.3-1.101-6.2-4.7c-0.3-0.1-0.6-0.1-0.899-0.1c-0.9,0-1.601,0.3-2.3,0.6c-0.9,0.6-1.601,1.7-1.601,2.9
	c0,0.5,0,0.899,0.2,1.3c0.4,1.1,1.2,1.899,2.2,2.3l-1.2,3.4h-0.1c-1.5-0.601-2.9-1.5-4.101-2.601c-0.3-0.7-0.399-1.399-0.399-2.2
	c0-1.1,0.3-2.199,0.8-3.1c1.399-2.6,3.6-4.2,7.1-3.2c0.7-0.8,1.101-1.8,1.2-3c0-1.7-1.2-3.1-2.8-3.3c-0.3-0.1-0.601-0.1-0.9-0.1
	c-0.8,0-1.6,0.3-2.2,0.8l-2.3-2.7c1.3-1.1,2.7-1.9,4.4-2.4c1.8,0.4,3.3,1.5,4.2,3c1.399,2.5,1.699,5.2-0.9,7.8c0.4,1,1.1,1.9,2,2.5
	c0.5,0.3,1.1,0.5,1.7,0.5c1.1,0,2-0.5,2.6-1.301c0.601-0.6,1-1.5,1-2.399C134.8,13,134.7,12.8,134.7,12.6L134.7,12.6z M132,13.1
	c0,0.1,3.9-3.9-0.2-6.5L131,4.2l2.1-1.2l0.5,1.7l0.2,0.8c0.7,0.4,1.2,0.9,1.601,1.6c0.3,0.5,0.5,1.1,0.5,1.8c0,1.1-0.4,2-1.101,2.7
	C134.2,12.4,133.2,13,132,13.1z M123.9,10.3c0,0-5.301-1.4-5.301,3.6l-1.699,1.8l-2.101-1.2l1.2-1.4l0.5-0.6
	c0.1-0.8,0.3-1.6,0.6-2.2c0.601-1.1,1.801-1.8,3.2-1.8c0.3,0,0.601,0,0.9,0.1C122.3,8.8,123.3,9.4,123.9,10.3L123.9,10.3z
	 M131.2,21.7l2.5,0.8v2.4l-1.8-0.4l-0.801-0.2C130.4,24.6,129.7,24.9,128.9,24.9c-1.601-0.101-3-1.2-3.5-2.801
	c-0.2-0.5-0.301-1-0.301-1.5c0-0.699,0.2-1.3,0.4-1.8C125.5,18.8,126.9,24.1,131.2,21.7z M4,16.1C4,11.6,7.7,8,12.2,8h0.6
	c2.6,0,4.9,1.3,6.3,3.3l-3.3,2.5c-0.8-1.1-2-1.8-3.5-1.9c-2.1,0.1-3.8,1.8-3.8,3.9V16.4c0,2.1,1.7,3.899,3.8,3.899
	c1.5,0,2.8-0.8,3.5-1.899l3.3,2.399C17.6,23,15.2,24.4,12.5,24.4H12h-0.1c-4.4,0-8-3.601-8-8C4,16.2,4,16.1,4,16.1z M21.2,8.2h8.1
	c1.8,0,3.4,0.7,4.6,1.7c0.9,0.9,1.4,2.1,1.4,3.5v0.5c0,2.1-1.3,3.9-3.2,4.7l3.8,5.5h-5.1l-3.2-4.8h-1.9v4.8h-4.4L21.2,8.2z
	 M28.5,15.9c1.5,0,2.4-0.7,2.4-1.9v-0.1c0-1.3-0.9-1.9-2.4-1.9h-2.9v3.8L28.5,15.9z M37.5,8.2h12.8V12h-8.4v2.4h7.6v3.5h-7.6v2.5
	h8.5v3.8H37.5V8.2z M44.7,3.5l4.1,1.3l-3.4,2.4h-3.2L44.7,3.5z M52.7,8.2h6.1c5.7,0,9,3.3,9,7.8c0,4.6-3.3,8-9,8h-6V8.2H52.7
	L52.7,8.2z M58.9,20.2c2.6,0,4.4-1.5,4.4-4s-1.7-4-4.4-4h-1.8v8.1L58.9,20.2z M70.1,8.2h4.4V24.1h-4.4V8.2z M81.3,12.1h-4.8V8.2
	h13.9V12h-4.8v12h-4.4L81.3,12.1z M91.2,16.2c0-4.6,3.7-8.3,8.3-8.3h0.6c4.6,0,8.3,3.7,8.3,8.3c0,4.6-3.8,8.3-8.3,8.3h-0.6
	C94.9,24.5,91.2,20.8,91.2,16.2z M103.8,16.3v-0.2c0-2.3-1.8-4.1-4.1-4.1c-2.2,0-4,1.8-4,4v0.3c0,2.3,1.8,4.101,4.1,4.101
	c2.2,0,4-1.801,4-4V16.3z"/>
</svg>
