<?xml version="1.0" encoding="utf-8"?>
<!-- Generator: Adobe Illustrator 16.0.0, SVG Export Plug-In . SVG Version: 6.00 Build 0)  -->
<!DOCTYPE svg PUBLIC "-//W3C//DTD SVG 1.1//EN" "http://www.w3.org/Graphics/SVG/1.1/DTD/svg11.dtd">
<svg version="1.1" id="Layer_1" xmlns="http://www.w3.org/2000/svg" xmlns:xlink="http://www.w3.org/1999/xlink" x="0px" y="0px"
	 width="216.361px" height="50px" viewBox="0 0 216.361 50" enable-background="new 0 0 216.361 50" xml:space="preserve">
<g>
	<path fill="#E51B0B" d="M93.26,35.694V4.028l-6.105,2.898v31.412c0,3.77,1.382,5.668,4.15,5.668c2.278,0,3.888-0.883,4.834-2.647
		C94.221,40.753,93.26,38.862,93.26,35.694"/>
	<path fill="#E51B0B" d="M103.244,27.993c0.846-3.76,3.014-5.64,6.493-5.64c3.809,0,5.926,1.88,6.353,5.64H103.244z M109.644,17.33
		c-3.568,0-6.624,1.262-9.168,3.781c-2.552,2.509-3.822,5.784-3.822,9.831c0,4.12,1.16,7.322,3.48,9.618
		c2.316,2.299,5.468,3.446,9.456,3.446c4.268,0,7.474-0.857,9.623-2.572c0,0-0.362-0.724-0.836-1.341
		c-0.447-0.646-0.989-1.388-1.756-1.632c-1.433-0.537-2.712,0.093-3.77,0.327c-1.306,0.293-1.507,0.194-2.354,0.194
		c-2.231,0-4.006-0.56-5.323-1.701c-1.318-1.135-2.038-2.726-2.15-4.772h18.681c0.341-1.49,0.513-2.604,0.513-3.342
		c0-3.438-1.148-6.271-3.441-8.498C116.476,18.449,113.436,17.33,109.644,17.33"/>
	<path fill="#E51B0B" d="M64.793,27.993c0.845-3.76,3.013-5.64,6.494-5.64c3.808,0,5.923,1.88,6.347,5.64H64.793z M71.187,17.33
		c-3.558,0-6.616,1.262-9.166,3.781c-2.546,2.509-3.822,5.784-3.822,9.831c0,4.12,1.16,7.322,3.483,9.618
		c2.315,2.299,5.47,3.446,9.458,3.446c4.268,0,7.468-0.857,9.619-2.572c0,0-0.363-0.724-0.837-1.341
		c-0.447-0.646-0.988-1.388-1.75-1.632c-1.438-0.537-2.714,0.093-3.774,0.327c-1.305,0.293-1.506,0.194-2.358,0.194
		c-2.226,0-4.003-0.56-5.324-1.701c-1.313-1.135-2.028-2.726-2.145-4.772h18.681c0.345-1.49,0.507-2.604,0.507-3.342
		c0-3.438-1.146-6.271-3.439-8.498C78.026,18.449,74.98,17.33,71.187,17.33"/>
	<path fill="#E51B0B" d="M148.332,17.345h-7.348l-9.262,10.389V4.027l-6.104,2.77v37.206h6.104v-9.019l2.931-3.054
		c0,0,7.049,10.604,7.307,10.982c0.732,1.122,2.088,1.09,2.088,1.09h5.884l-10.979-16.386L148.332,17.345z"/>
	<path fill="#E51B0B" d="M161.736,37.804c-0.583-0.753-0.879-2.055-0.879-3.895V22.165h7.183v-4.824h-7.183V9.894l-6.101,2.208
		v5.239h-3.028l-4.368,4.824h7.396v13.496c0,2.676,0.703,4.731,2.099,6.182c1.402,1.448,3.404,2.172,6.005,2.172
		c2.623,0,4.642-0.241,6.058-0.72v-5.522c-1.271,0.78-2.638,1.175-4.102,1.175C163.35,38.947,162.322,38.571,161.736,37.804"/>
	<path fill="#E51B0B" d="M188.005,19.559c0.61-1.04,1.058-1.317,1.058-1.317c-1.794-0.735-3.239-0.927-4.866-0.912
		c-2.834,0.025-4.952,1.052-6.672,2.937v-2.914h-6.096v26.67h6.096V28.981c0-1.827,0.555-3.369,1.654-4.636
		c1.098-1.259,2.796-1.91,4.211-1.958c1.901-0.069,3.586,0.838,4.291,1.334C187.681,23.722,187.04,21.192,188.005,19.559"/>
	<path fill="#E51B0B" d="M203.443,33.835c0,3.6-1.831,5.401-5.488,5.401c-2.729,0-4.079-1.145-4.079-3.46
		c0-3.102,2.405-4.656,7.224-4.656c0.519,0,1.296,0.109,2.344,0.315V33.835z M209.525,35.661v-5.5c0-4.973-0.93-8.355-2.786-10.137
		c-1.856-1.784-3.772-2.705-7.762-2.705c-2.884,0-4.583,0.5-4.583,0.5c-4.418,1.267-2.606,5.669-2.606,5.669l0.016-0.004
		l-0.001,0.004c0.045-0.027,0.095-0.041,0.149-0.066l0.835-0.337c1.354-0.483,2.948-0.725,4.776-0.725
		c3.89,0,5.833,1.517,5.833,4.539c-0.978-0.246-1.827-0.361-2.541-0.361c-4.182,0-7.408,0.842-9.684,2.523
		c-2.261,1.678-3.405,4.004-3.405,6.981c0,2.545,0.812,4.513,2.424,5.892c1.612,1.386,3.822,2.081,6.639,2.081
		c1.502,0,2.934-0.289,4.311-0.854c1.371-0.566,2.34-1.302,2.89-2.198c0.249,0.751,0.718,1.444,1.417,2.092
		c0.696,0.639,1.49,0.915,2.371,0.96c0.838,0.032,1.43-0.039,2.12-0.307c0.623-0.237,1.18-0.726,1.691-1.593
		C210.225,41.231,209.525,39.085,209.525,35.661"/>
	<path fill="#E51B0B" d="M41.39,21.514c0,0,0.735,2.91-1.688,5.544c-2.709,2.941-5.613,2.729-7.892,1.542
		c-2.081-1.082-3.271-3.657-3.675-4.672c4.814-4.686,4.221-9.656,1.575-14.234c-2.734-4.73-8.019-5.492-8.019-5.492
		c-4.367,1.159-7.975,4.316-7.975,4.316l4.339,4.978c0,0,2.15-2.089,5.642-1.307c3.913,0.875,5.175,3.504,5.286,6.061
		c0.104,2.325-1.502,4.62-2.195,5.497c-6.463-1.827-10.474,1.169-13.124,5.756c-2.728,4.724-0.745,9.69-0.745,9.69
		c3.191,3.202,7.728,4.752,7.728,4.752l2.146-6.252c0,0-2.884-0.816-3.958-4.24c-1.196-3.813,0.449-6.226,2.608-7.599
		c1.966-1.259,4.774-1.008,5.872-0.848c1.646,6.527,6.252,8.512,11.543,8.512c5.459,0,8.771-4.199,8.771-4.199
		c1.177-4.368,0.247-9.073,0.247-9.073L41.39,21.514z"/>
	<path fill="#E51B0B" d="M35.753,10.66c7.768,4.643,0.626,11.815,0.626,11.815s3.178-0.125,5.251-2.766
		c3.018-3.868,1.856-6.794,1.135-8.216c-0.835-1.608-2.982-2.938-2.993-2.945l-0.464-1.41l-1.043-3.16l-3.852,2.257L35.753,10.66z"
		/>
	<path fill="#E51B0B" d="M21.418,17.415c0,0-1.698-2.694-5.02-3.161c-4.859-0.688-6.819,1.788-7.68,3.123
		c-0.981,1.529-1.06,4.062-1.06,4.062l-0.989,1.106l-2.218,2.487l3.883,2.193l3.165-3.36C11.633,14.808,21.418,17.415,21.418,17.415
		"/>
	<path fill="#E51B0B" d="M35.021,38.162c-7.915,4.411-10.55-5.362-10.55-5.362s-1.48,2.812-0.227,5.921
		c1.832,4.558,4.957,5.016,6.54,5.095c1.823,0.091,4.055-1.117,4.055-1.117l1.445,0.301l3.256,0.682l-0.026-4.46L35.021,38.162z"/>
</g>
</svg>
