<?xml version="1.0" encoding="utf-8"?>
<!-- Generator: Adobe Illustrator 16.0.0, SVG Export Plug-In . SVG Version: 6.00 Build 0)  -->
<!DOCTYPE svg PUBLIC "-//W3C//DTD SVG 1.1//EN" "http://www.w3.org/Graphics/SVG/1.1/DTD/svg11.dtd">
<svg version="1.1" id="buybox_icon_credit__1_krY" xmlns="http://www.w3.org/2000/svg" xmlns:xlink="http://www.w3.org/1999/xlink"
	 x="0px" y="0px" width="230px" height="85px" viewBox="0 -28 230 85" enable-background="new 0 -28 230 85" xml:space="preserve">
<title>Crédito Elektra</title>
<g>
	<path fill="#E1251C" d="M80.603,3.683c0.923-3.204,2.284-6.338,4.106-9.322c10.963-17.941,34.394-23.597,52.333-12.635
		c2.734,1.671,5.18,3.634,7.327,5.82l1.69-0.794c-2.387-2.534-5.14-4.801-8.254-6.705c-18.803-11.489-43.36-5.56-54.849,13.243
		c-2.028,3.319-3.511,6.818-4.479,10.393H80.603z"/>
	<path fill="#E1251C" d="M97.345,46.695c-4.94-3.02-8.946-6.984-11.933-11.52h-2.29c3.183,5.125,7.579,9.604,13.079,12.965
		c12.928,7.9,28.577,7.565,40.828,0.475v-1.902C125.235,53.896,109.938,54.39,97.345,46.695z"/>
	<path fill="#E1251C" d="M148.968,35.175c-1.464,2.221-3.124,4.241-4.943,6.051v2.24c2.59-2.386,4.901-5.158,6.851-8.291H148.968z"
		/>
	<path fill="#E1251C" d="M154.69,1.037c-0.97-2.805-2.247-5.508-3.83-8.051l-1.575,0.74c1.473,2.311,2.68,4.764,3.616,7.311H154.69z
		"/>
	<path fill="#E1251C" d="M127.803-10.424c3.907,1.69,7.203,4.2,9.79,7.234l2.141-0.451c-2.867-3.624-6.644-6.613-11.182-8.577
		c-13.95-6.037-30.04-0.231-37.042,12.969l2.228,0.046C100.504-10.893,115.104-15.919,127.803-10.424z"/>
	<g enable-background="new    ">
		<path d="M32.903,18.651c0,2.009-0.351,3.864-1.052,5.571c-0.702,1.706-1.677,3.184-2.929,4.436
			c-1.25,1.25-2.749,2.227-4.491,2.927c-1.745,0.701-3.658,1.052-5.742,1.052c-2.047,0-3.943-0.351-5.687-1.052
			c-1.744-0.7-3.24-1.677-4.492-2.927c-1.25-1.252-2.227-2.73-2.928-4.436c-0.701-1.707-1.051-3.562-1.051-5.571
			c0-2.01,0.351-3.867,1.051-5.572c0.702-1.707,1.679-3.185,2.928-4.436c1.252-1.25,2.749-2.226,4.492-2.928
			c1.744-0.701,3.639-1.052,5.687-1.052c2.083,0,3.997,0.351,5.742,1.052c1.742,0.702,3.241,1.677,4.491,2.928
			c1.252,1.251,2.227,2.729,2.929,4.436C32.552,14.784,32.903,16.642,32.903,18.651z M28.81,18.651c0-1.479-0.237-2.872-0.711-4.18
			c-0.474-1.308-1.146-2.445-2.018-3.412c-0.873-0.966-1.933-1.734-3.185-2.302c-1.25-0.569-2.654-0.853-4.206-0.853
			c-1.555,0-2.949,0.284-4.18,0.853c-1.232,0.568-2.283,1.336-3.155,2.302c-0.872,0.967-1.545,2.104-2.02,3.412
			c-0.474,1.308-0.71,2.7-0.71,4.18c0,1.478,0.236,2.87,0.71,4.179c0.474,1.308,1.147,2.444,2.02,3.411
			c0.871,0.967,1.922,1.726,3.155,2.273c1.231,0.55,2.625,0.824,4.18,0.824c1.552,0,2.956-0.274,4.206-0.824
			c1.251-0.548,2.312-1.308,3.185-2.273c0.871-0.967,1.544-2.104,2.018-3.411C28.573,21.522,28.81,20.129,28.81,18.651z"/>
		<path d="M48.511,6.114c1.571-0.966,3.325-1.45,5.258-1.45c0.721,0,1.469,0.076,2.245,0.227c0.777,0.152,1.535,0.446,2.275,0.882
			s1.421,1.014,2.048,1.734c0.625,0.72,1.166,1.648,1.62,2.786c0.91-1.819,2.15-3.212,3.724-4.179c1.573-0.967,3.44-1.45,5.6-1.45
			c3.374,0,5.904,1.005,7.591,3.014c1.686,2.01,2.529,4.662,2.529,7.96v16.317h-3.865V17.229c0-2.805-0.522-5.061-1.564-6.766
			c-1.043-1.706-2.815-2.559-5.316-2.559c-1.403,0-2.587,0.284-3.553,0.853c-0.967,0.568-1.745,1.317-2.332,2.246
			s-1.014,1.981-1.279,3.155c-0.266,1.175-0.398,2.388-0.398,3.639v14.157h-3.866V16.434c0-1.288-0.096-2.463-0.284-3.525
			c-0.19-1.061-0.522-1.962-0.996-2.7c-0.474-0.739-1.126-1.308-1.96-1.706c-0.834-0.398-1.895-0.597-3.184-0.597
			c-0.91,0-1.829,0.208-2.758,0.625c-0.929,0.417-1.762,1.051-2.501,1.904s-1.337,1.934-1.792,3.241
			c-0.455,1.308-0.682,2.853-0.682,4.634v13.646h-3.866V11.203c0-0.72-0.02-1.649-0.057-2.787c-0.04-1.137-0.095-2.16-0.171-3.07
			h3.696c0.075,0.72,0.131,1.516,0.17,2.388C44.88,8.607,44.9,9.326,44.9,9.896h0.114C45.771,8.341,46.937,7.081,48.511,6.114z"/>
		<path d="M94.875,5.346c0.077,0.721,0.134,1.516,0.171,2.388c0.038,0.872,0.058,1.591,0.058,2.16h0.114
			c0.757-1.554,1.99-2.814,3.694-3.781c1.706-0.966,3.506-1.45,5.402-1.45c3.373,0,5.904,1.005,7.59,3.014
			c1.687,2.009,2.53,4.663,2.53,7.959v16.317h-3.866V17.229c0-1.402-0.113-2.674-0.341-3.811c-0.228-1.136-0.616-2.111-1.165-2.927
			c-0.551-0.815-1.291-1.45-2.219-1.905c-0.928-0.455-2.094-0.682-3.495-0.682c-1.024,0-2.02,0.208-2.985,0.625
			c-0.967,0.418-1.829,1.052-2.587,1.904s-1.364,1.934-1.82,3.241c-0.454,1.308-0.681,2.852-0.681,4.634v13.645h-3.867V11.202
			c0-0.72-0.02-1.648-0.056-2.786c-0.039-1.137-0.095-2.16-0.171-3.07H94.875z"/>
		<path d="M129.16-4.888c0,0.796-0.285,1.45-0.853,1.962c-0.568,0.512-1.195,0.768-1.877,0.768c-0.683,0-1.308-0.256-1.876-0.768
			s-0.854-1.166-0.854-1.962c0-0.796,0.285-1.449,0.854-1.961c0.568-0.512,1.193-0.768,1.876-0.768c0.682,0,1.309,0.255,1.877,0.768
			C128.875-6.337,129.16-5.684,129.16-4.888z M128.364,31.955h-3.866V5.346h3.866V31.955z"/>
		<path d="M142.521,45.601h-3.866V5.346h3.866v4.606h0.171c1.099-1.744,2.567-3.061,4.405-3.952c1.84-0.89,3.705-1.336,5.6-1.336
			c2.086,0,3.972,0.36,5.658,1.081c1.686,0.72,3.128,1.706,4.321,2.956c1.195,1.251,2.122,2.729,2.786,4.435
			c0.663,1.706,0.996,3.544,0.996,5.516c0,1.971-0.333,3.809-0.996,5.514c-0.664,1.706-1.592,3.185-2.786,4.436
			c-1.193,1.25-2.635,2.236-4.321,2.957c-1.687,0.719-3.572,1.079-5.658,1.079c-1.895,0-3.76-0.445-5.6-1.335
			c-1.838-0.89-3.307-2.169-4.405-3.838h-0.171V45.601z M162.364,18.651c0-1.479-0.228-2.872-0.682-4.18
			c-0.456-1.308-1.108-2.445-1.962-3.412c-0.853-0.966-1.903-1.734-3.155-2.302c-1.251-0.569-2.673-0.853-4.265-0.853
			c-1.478,0-2.842,0.275-4.093,0.824c-1.252,0.55-2.332,1.307-3.24,2.274c-0.91,0.967-1.622,2.104-2.134,3.412
			c-0.511,1.307-0.768,2.719-0.768,4.235s0.257,2.929,0.768,4.234c0.512,1.31,1.224,2.438,2.134,3.385
			c0.908,0.948,1.988,1.697,3.24,2.245c1.251,0.551,2.615,0.824,4.093,0.824c1.592,0,3.014-0.273,4.265-0.824
			c1.252-0.548,2.303-1.307,3.155-2.273c0.854-0.967,1.506-2.104,1.962-3.411C162.137,21.522,162.364,20.129,162.364,18.651z"/>
		<path d="M201.197,18.651c0,2.009-0.352,3.864-1.053,5.571c-0.701,1.706-1.677,3.184-2.928,4.436
			c-1.25,1.25-2.748,2.227-4.492,2.927c-1.743,0.701-3.657,1.052-5.741,1.052c-2.048,0-3.943-0.351-5.687-1.052
			c-1.743-0.7-3.241-1.677-4.491-2.927c-1.252-1.252-2.229-2.73-2.929-4.436c-0.7-1.707-1.053-3.562-1.053-5.571
			c0-2.01,0.353-3.867,1.053-5.572c0.7-1.707,1.677-3.185,2.929-4.436c1.25-1.25,2.748-2.226,4.491-2.928
			c1.743-0.701,3.639-1.052,5.687-1.052c2.084,0,3.998,0.351,5.741,1.052c1.744,0.702,3.242,1.677,4.492,2.928
			c1.251,1.251,2.227,2.729,2.928,4.436C200.846,14.784,201.197,16.642,201.197,18.651z M197.104,18.651
			c0-1.479-0.237-2.872-0.711-4.18s-1.146-2.445-2.019-3.412c-0.872-0.966-1.933-1.734-3.184-2.302
			c-1.252-0.569-2.654-0.853-4.207-0.853c-1.556,0-2.949,0.284-4.181,0.853c-1.232,0.568-2.283,1.336-3.154,2.302
			c-0.872,0.967-1.545,2.104-2.019,3.412c-0.475,1.308-0.712,2.7-0.712,4.18c0,1.478,0.237,2.87,0.712,4.179
			c0.474,1.308,1.146,2.444,2.019,3.411c0.871,0.967,1.922,1.726,3.154,2.273c1.231,0.55,2.625,0.824,4.181,0.824
			c1.553,0,2.955-0.274,4.207-0.824c1.251-0.548,2.312-1.308,3.184-2.273c0.872-0.967,1.545-2.104,2.019-3.411
			S197.104,20.129,197.104,18.651z"/>
		<path d="M223.654,11.657c-0.568-1.099-1.431-1.999-2.586-2.7c-1.156-0.701-2.475-1.052-3.951-1.052
			c-0.683,0-1.365,0.077-2.048,0.228c-0.682,0.152-1.289,0.398-1.818,0.739c-0.532,0.341-0.958,0.777-1.279,1.308
			c-0.323,0.531-0.484,1.156-0.484,1.877c0,1.25,0.513,2.208,1.535,2.87c1.023,0.664,2.634,1.224,4.833,1.678
			c3.146,0.645,5.468,1.583,6.965,2.814c1.498,1.231,2.246,2.891,2.246,4.975c0,1.517-0.294,2.795-0.882,3.838
			c-0.587,1.043-1.354,1.896-2.302,2.559c-0.948,0.664-2.02,1.137-3.213,1.421c-1.194,0.285-2.398,0.427-3.609,0.427
			c-2.011,0-3.962-0.417-5.858-1.251c-1.895-0.834-3.448-2.141-4.662-3.923l3.071-2.273c0.683,1.174,1.687,2.16,3.014,2.955
			c1.326,0.798,2.785,1.194,4.377,1.194c0.835,0,1.63-0.075,2.39-0.227c0.757-0.151,1.421-0.417,1.99-0.796
			c0.567-0.379,1.021-0.861,1.364-1.45c0.34-0.587,0.511-1.316,0.511-2.188c0-1.402-0.673-2.454-2.019-3.155
			c-1.346-0.702-3.288-1.355-5.828-1.961c-0.795-0.19-1.639-0.427-2.529-0.712c-0.891-0.284-1.716-0.7-2.473-1.25
			c-0.759-0.55-1.385-1.241-1.878-2.076c-0.492-0.833-0.738-1.876-0.738-3.127c0-1.364,0.266-2.53,0.796-3.496
			c0.531-0.967,1.242-1.763,2.133-2.389c0.89-0.625,1.904-1.088,3.042-1.393c1.137-0.303,2.312-0.455,3.524-0.455
			c1.856,0,3.658,0.418,5.402,1.251c1.741,0.834,3.05,2.01,3.921,3.525L223.654,11.657z"/>
	</g>
	<path fill="#E1251C" d="M136.854,32.716c-7.564,8.144-19.711,11.07-30.493,6.404c-0.425-0.184-0.841-0.38-1.251-0.584l-2.929,0.616
		c1.076,0.645,2.203,1.232,3.386,1.744c10.912,4.723,23.13,2.194,31.287-5.447V32.716L136.854,32.716z"/>
</g>
</svg>
